<svg width="741" height="292" viewBox="0 0 741 292" fill="none" xmlns="http://www.w3.org/2000/svg">
<g filter="url(#filter0_d_51_256)">
<path d="M103.401 9.69134C105.488 7.34336 108.48 6 111.622 6H720C726.075 6 731 10.9249 731 17V267C731 273.075 726.075 278 720 278H112.842C109.015 278 105.463 276.011 103.464 272.748L12.2648 123.958C9.73204 119.826 10.2022 114.523 13.4223 110.901L103.401 9.69134Z" fill="#B3BBFF" fill-opacity="0.36" shape-rendering="crispEdges"/>
<path d="M111.622 6.5H720C725.799 6.5 730.5 11.201 730.5 17V267C730.5 272.799 725.799 277.5 720 277.5H112.842C109.189 277.5 105.799 275.602 103.89 272.487L12.691 123.697C10.2735 119.752 10.7222 114.691 13.796 111.233L103.774 10.0236C105.767 7.7823 108.623 6.5 111.622 6.5Z" stroke="#B3FFFA" stroke-opacity="0.03" shape-rendering="crispEdges"/>
</g>
<defs>
<filter id="filter0_d_51_256" x="0.643126" y="0" width="740.357" height="292" filterUnits="userSpaceOnUse" color-interpolation-filters="sRGB">
<feFlood flood-opacity="0" result="BackgroundImageFix"/>
<feColorMatrix in="SourceAlpha" type="matrix" values="0 0 0 0 0 0 0 0 0 0 0 0 0 0 0 0 0 0 127 0" result="hardAlpha"/>
<feOffset dy="4"/>
<feGaussianBlur stdDeviation="5"/>
<feComposite in2="hardAlpha" operator="out"/>
<feColorMatrix type="matrix" values="0 0 0 0 0 0 0 0 0 0 0 0 0 0 0 0 0 0 0.08 0"/>
<feBlend mode="normal" in2="BackgroundImageFix" result="effect1_dropShadow_51_256"/>
<feBlend mode="normal" in="SourceGraphic" in2="effect1_dropShadow_51_256" result="shape"/>
</filter>
</defs>
</svg>
