<svg width="1440" height="174" viewBox="0 0 1440 174" fill="none" xmlns="http://www.w3.org/2000/svg">
<path fill-rule="evenodd" clip-rule="evenodd" d="M0 88.9265L12 91.6833C24 94.4401 48 100.347 72 86.1698C96 71.9921 120 37.7294 144 40.88C168 43.6367 192 83.413 216 103.104C240 122.795 264 122.795 288 125.946C312 128.703 336 134.216 360 128.703C384 122.795 408 105.861 432 111.768C456 117.282 480 145.637 504 148.394C528 151.151 552 128.703 576 122.795C600 117.282 624 128.703 648 128.703C672 128.703 696 117.282 720 94.4401C744 71.9921 768 37.7294 792 23.5517C816 9.374 840 15.2814 864 23.5517C888 32.2158 912 43.6367 936 66.0847C960 88.9265 984 122.795 1008 134.216C1032 145.637 1056 134.216 1080 122.795C1104 111.768 1128 100.347 1152 83.413C1176 66.0847 1200 43.6367 1224 51.907C1248 60.5712 1272 100.347 1296 97.5907C1320 94.4401 1344 49.1503 1368 34.9726C1392 20.7949 1416 37.7294 1428 46.3935L1440 55.0576V173.993H1428C1416 173.993 1392 173.993 1368 173.993C1344 173.993 1320 173.993 1296 173.993C1272 173.993 1248 173.993 1224 173.993C1200 173.993 1176 173.993 1152 173.993C1128 173.993 1104 173.993 1080 173.993C1056 173.993 1032 173.993 1008 173.993C984 173.993 960 173.993 936 173.993C912 173.993 888 173.993 864 173.993C840 173.993 816 173.993 792 173.993C768 173.993 744 173.993 720 173.993C696 173.993 672 173.993 648 173.993C624 173.993 600 173.993 576 173.993C552 173.993 528 173.993 504 173.993C480 173.993 456 173.993 432 173.993C408 173.993 384 173.993 360 173.993C336 173.993 312 173.993 288 173.993C264 173.993 240 173.993 216 173.993C192 173.993 168 173.993 144 173.993C120 173.993 96 173.993 72 173.993C48 173.993 24 173.993 12 173.993H0V88.9265Z" fill="#FCDDED" fill-opacity="0.97"/>
<path fill-rule="evenodd" clip-rule="evenodd" d="M0 73.9266L12 76.6834C24 79.4401 48 85.3475 72 71.1698C96 56.9921 120 22.7294 144 25.88C168 28.6368 192 68.413 216 88.1043C240 107.795 264 107.795 288 110.946C312 113.703 336 119.216 360 113.703C384 107.796 408 90.861 432 96.7684C456 102.282 480 130.637 504 133.394C528 136.151 552 113.703 576 107.795C600 102.282 624 113.703 648 113.703C672 113.703 696 102.282 720 79.4401C744 56.9921 768 22.7294 792 8.55173C816 -5.62596 840 0.281411 864 8.55173C888 17.2159 912 28.6368 936 51.0848C960 73.9266 984 107.796 1008 119.216C1032 130.637 1056 119.216 1080 107.795C1104 96.7684 1128 85.3475 1152 68.413C1176 51.0848 1200 28.6368 1224 36.9071C1248 45.5712 1272 85.3475 1296 82.5907C1320 79.4401 1344 34.1503 1368 19.9726C1392 5.79495 1416 22.7294 1428 31.3935L1440 40.0577V158.993H1428C1416 158.993 1392 158.993 1368 158.993C1344 158.993 1320 158.993 1296 158.993C1272 158.993 1248 158.993 1224 158.993C1200 158.993 1176 158.993 1152 158.993C1128 158.993 1104 158.993 1080 158.993C1056 158.993 1032 158.993 1008 158.993C984 158.993 960 158.993 936 158.993C912 158.993 888 158.993 864 158.993C840 158.993 816 158.993 792 158.993C768 158.993 744 158.993 720 158.993C696 158.993 672 158.993 648 158.993C624 158.993 600 158.993 576 158.993C552 158.993 528 158.993 504 158.993C480 158.993 456 158.993 432 158.993C408 158.993 384 158.993 360 158.993C336 158.993 312 158.993 288 158.993C264 158.993 240 158.993 216 158.993C192 158.993 168 158.993 144 158.993C120 158.993 96 158.993 72 158.993C48 158.993 24 158.993 12 158.993H0V73.9266Z" fill="#FCDDED" fill-opacity="0.4"/>
<path fill-rule="evenodd" clip-rule="evenodd" d="M0 88.9265L12 91.6833C24 94.4401 48 100.347 72 86.1698C96 71.9921 120 37.7294 144 40.88C168 43.6367 192 83.413 216 103.104C240 122.795 264 122.795 288 125.946C312 128.703 336 134.216 360 128.703C384 122.795 408 105.861 432 111.768C456 117.282 480 145.637 504 148.394C528 151.151 552 128.703 576 122.795C600 117.282 624 128.703 648 128.703C672 128.703 696 117.282 720 94.4401C744 71.9921 768 37.7294 792 23.5517C816 9.374 840 15.2814 864 23.5517C888 32.2158 912 43.6367 936 66.0847C960 88.9265 984 122.795 1008 134.216C1032 145.637 1056 134.216 1080 122.795C1104 111.768 1128 100.347 1152 83.413C1176 66.0847 1200 43.6367 1224 51.907C1248 60.5712 1272 100.347 1296 97.5907C1320 94.4401 1344 49.1503 1368 34.9726C1392 20.7949 1416 37.7294 1428 46.3935L1440 55.0576V173.993H1428C1416 173.993 1392 173.993 1368 173.993C1344 173.993 1320 173.993 1296 173.993C1272 173.993 1248 173.993 1224 173.993C1200 173.993 1176 173.993 1152 173.993C1128 173.993 1104 173.993 1080 173.993C1056 173.993 1032 173.993 1008 173.993C984 173.993 960 173.993 936 173.993C912 173.993 888 173.993 864 173.993C840 173.993 816 173.993 792 173.993C768 173.993 744 173.993 720 173.993C696 173.993 672 173.993 648 173.993C624 173.993 600 173.993 576 173.993C552 173.993 528 173.993 504 173.993C480 173.993 456 173.993 432 173.993C408 173.993 384 173.993 360 173.993C336 173.993 312 173.993 288 173.993C264 173.993 240 173.993 216 173.993C192 173.993 168 173.993 144 173.993C120 173.993 96 173.993 72 173.993C48 173.993 24 173.993 12 173.993H0V88.9265Z" stroke="black"/>
<path fill-rule="evenodd" clip-rule="evenodd" d="M0 73.9266L12 76.6834C24 79.4401 48 85.3475 72 71.1698C96 56.9921 120 22.7294 144 25.88C168 28.6368 192 68.413 216 88.1043C240 107.795 264 107.795 288 110.946C312 113.703 336 119.216 360 113.703C384 107.796 408 90.861 432 96.7684C456 102.282 480 130.637 504 133.394C528 136.151 552 113.703 576 107.795C600 102.282 624 113.703 648 113.703C672 113.703 696 102.282 720 79.4401C744 56.9921 768 22.7294 792 8.55173C816 -5.62596 840 0.281411 864 8.55173C888 17.2159 912 28.6368 936 51.0848C960 73.9266 984 107.796 1008 119.216C1032 130.637 1056 119.216 1080 107.795C1104 96.7684 1128 85.3475 1152 68.413C1176 51.0848 1200 28.6368 1224 36.9071C1248 45.5712 1272 85.3475 1296 82.5907C1320 79.4401 1344 34.1503 1368 19.9726C1392 5.79495 1416 22.7294 1428 31.3935L1440 40.0577V158.993H1428C1416 158.993 1392 158.993 1368 158.993C1344 158.993 1320 158.993 1296 158.993C1272 158.993 1248 158.993 1224 158.993C1200 158.993 1176 158.993 1152 158.993C1128 158.993 1104 158.993 1080 158.993C1056 158.993 1032 158.993 1008 158.993C984 158.993 960 158.993 936 158.993C912 158.993 888 158.993 864 158.993C840 158.993 816 158.993 792 158.993C768 158.993 744 158.993 720 158.993C696 158.993 672 158.993 648 158.993C624 158.993 600 158.993 576 158.993C552 158.993 528 158.993 504 158.993C480 158.993 456 158.993 432 158.993C408 158.993 384 158.993 360 158.993C336 158.993 312 158.993 288 158.993C264 158.993 240 158.993 216 158.993C192 158.993 168 158.993 144 158.993C120 158.993 96 158.993 72 158.993C48 158.993 24 158.993 12 158.993H0V73.9266Z" stroke="black"/>
</svg>
